<mxfile host="app.diagrams.net" modified="2021-01-28T13:20:26.825Z" agent="5.0 (Macintosh)" etag="MVRL2wIHbdI820xVv_Ph" version="14.2.6" type="github">
  <diagram id="QrgSGAcMqLjUYxH2Z68y" name="Page-1">
    <mxGraphModel dx="946" dy="546" grid="1" gridSize="10" guides="1" tooltips="1" connect="1" arrows="1" fold="1" page="1" pageScale="1" pageWidth="850" pageHeight="1100" math="0" shadow="0">
      <root>
        <mxCell id="0" />
        <mxCell id="1" parent="0" />
        <mxCell id="ULPqpBoAnRgQTEhIJqGX-1" value="&lt;div&gt;Infra&amp;amp;Security&lt;/div&gt;&lt;div&gt;Frontend&lt;/div&gt;" style="rounded=1;whiteSpace=wrap;html=1;fillColor=#fad7ac;strokeColor=#b46504;" vertex="1" parent="1">
          <mxGeometry x="340" y="40" width="120" height="60" as="geometry" />
        </mxCell>
        <mxCell id="ULPqpBoAnRgQTEhIJqGX-2" value="Infra&amp;amp;Security&amp;nbsp; BFF" style="rounded=1;whiteSpace=wrap;html=1;fillColor=#d5e8d4;strokeColor=#82b366;" vertex="1" parent="1">
          <mxGeometry x="340" y="142" width="120" height="60" as="geometry" />
        </mxCell>
        <mxCell id="ULPqpBoAnRgQTEhIJqGX-3" value="&lt;div&gt;Infra &amp;amp; Security&lt;br&gt;&lt;/div&gt;&lt;div&gt; Microservice&lt;/div&gt;" style="rounded=1;whiteSpace=wrap;html=1;fillColor=#b0e3e6;strokeColor=#0e8088;" vertex="1" parent="1">
          <mxGeometry x="340" y="290" width="120" height="60" as="geometry" />
        </mxCell>
        <mxCell id="ULPqpBoAnRgQTEhIJqGX-4" value="" style="endArrow=classic;html=1;entryX=0.5;entryY=0;entryDx=0;entryDy=0;exitX=0.5;exitY=1;exitDx=0;exitDy=0;" edge="1" parent="1" source="ULPqpBoAnRgQTEhIJqGX-2" target="ULPqpBoAnRgQTEhIJqGX-3">
          <mxGeometry width="50" height="50" relative="1" as="geometry">
            <mxPoint x="400" y="280" as="sourcePoint" />
            <mxPoint x="450" y="230" as="targetPoint" />
          </mxGeometry>
        </mxCell>
        <mxCell id="ULPqpBoAnRgQTEhIJqGX-5" value="" style="endArrow=classic;html=1;exitX=0.5;exitY=1;exitDx=0;exitDy=0;" edge="1" parent="1" source="ULPqpBoAnRgQTEhIJqGX-1">
          <mxGeometry width="50" height="50" relative="1" as="geometry">
            <mxPoint x="410" y="212" as="sourcePoint" />
            <mxPoint x="400" y="140" as="targetPoint" />
          </mxGeometry>
        </mxCell>
      </root>
    </mxGraphModel>
  </diagram>
</mxfile>
